# xmcd
#
# Track frame offsets: 
#        150
#        823
#        9436
#        14851
#        21457
#        31947
#        38161
#        42678
#        54458
#        58838
#        73656
#        84692
#        88427
#        90894
#        97012
#        100337
#        103168
#        112405
#        119587
#        122204
#        126259
#        126852
#        130912
#        149869
#        165061
#        166797
#        178378
#        193556
#        195648
#        204116
#        224065
#
# Disc length: 3811 seconds
#
# Revision: 0
# Processed by: cddbd v1.5.2PL0 Copyright (c) Steve Scherf et al.
# Submitted via: ExactAudioCopy v0.95b3
#
DISCID=d00ee11f
DTITLE=The Beatles  - AB  Road - Complete Purple Chick Set v1.1 Jan.14
DTITLE=Various Artist - D1  FLAC
DYEAR=1900
DGENRE=
TTITLE0=Roll Announcement
TTITLE1=Improvisation 14.01
TTITLE2=Improvisation 14.02
TTITLE3=Martha My Dear 14.03
TTITLE4=San Francisco Bay Blues 14.04
TTITLE5=Improvisation 14.05
TTITLE6=Improvisation 14.06
TTITLE7=Oh Baby I Love You 14.07
TTITLE8=Improvisation 14.08
TTITLE9=The Day I Went Back To School 14.09
TTITLE10=Lady Jane 14.10
TTITLE11=Lady Jane 14.11
TTITLE12=Talking Blues 14.12
TTITLE13=Improvisation 14.13
TTITLE14=Improvisation 14.14
TTITLE15=Woman 14.15
TTITLE16=Woman 14.16
TTITLE17=Woman 14.17
TTITLE18=Cocaine Blues 14.18
TTITLE19=Flushed From The Bathroom Of Your Heart 14.19
TTITLE20=On A Clear Day You Can See Forever 14.20
TTITLE21=Improvisation 14.21
TTITLE22=The Back Seat Of My Car 14.22
TTITLE23=The Back Seat Of My Car 14.23
TTITLE24=Improvisation 14.24
TTITLE25=Song Of Love 14.25
TTITLE26=Song Of Love 14.26
TTITLE27=As Clear As A Bell 14.27
TTITLE28=Hello, Dolly 14.28
TTITLE29=Dialogue
TTITLE30=Dialogue
EXTD=
EXTT0=
EXTT1=
EXTT2=
EXTT3=
EXTT4=
EXTT5=
EXTT6=
EXTT7=
EXTT8=
EXTT9=
EXTT10=
EXTT11=
EXTT12=
EXTT13=
EXTT14=
EXTT15=
EXTT16=
EXTT17=
EXTT18=
EXTT19=
EXTT20=
EXTT21=
EXTT22=
EXTT23=
EXTT24=
EXTT25=
EXTT26=
EXTT27=
EXTT28=
EXTT29=
EXTT30=
PLAYORDER=
